<?xml version="1.0" standalone="no"?>
<!DOCTYPE svg PUBLIC "-//W3C//DTD SVG 20010904//EN"
 "http://www.w3.org/TR/2001/REC-SVG-20010904/DTD/svg10.dtd">
<svg version="1.0" xmlns="http://www.w3.org/2000/svg"
 width="1024.000000pt" height="1024.000000pt" viewBox="0 0 1024.000000 1024.000000"
 preserveAspectRatio="xMidYMid meet">

<g transform="translate(0.000000,1024.000000) scale(0.100000,-0.100000)"
fill="#000000" stroke="none">
<path d="M4250 7590 c58 -5 125 -13 150 -19 55 -12 65 -6 13 9 -21 6 -90 13
-153 15 l-115 4 105 -9z"/>
<path d="M5560 7584 l-45 -14 40 6 c22 3 44 10 50 15 11 11 12 11 -45 -7z"/>
<path d="M5725 7590 c189 -14 286 -58 396 -178 64 -70 120 -172 150 -274 14
-44 17 -51 13 -23 -7 52 -57 171 -94 227 -39 59 -113 133 -175 174 -76 52
-161 75 -290 79 l-110 4 110 -9z"/>
<path d="M4027 7575 c-101 -28 -259 -149 -298 -229 -5 -11 5 -3 23 19 95 117
200 185 323 209 47 9 58 14 35 14 -19 0 -57 -6 -83 -13z"/>
<path d="M2577 7573 c-4 -3 -6 -27 -5 -52 l1 -46 6 45 6 45 420 0 420 0 0
-135 0 -135 -244 -3 c-248 -2 -272 -6 -270 -41 0 -12 2 -11 8 4 8 19 20 20
262 25 l254 5 0 145 0 145 -426 3 c-234 1 -429 -1 -432 -5z"/>
<path d="M6589 7564 c-23 -28 -31 -267 -25 -813 4 -364 9 -538 17 -545 7 -8 8
-3 3 19 -4 17 -8 314 -8 660 -1 475 2 637 11 657 l12 28 228 3 228 2 -226 3
c-196 2 -228 0 -240 -14z"/>
<path d="M5435 7544 c-110 -56 -190 -135 -259 -255 -28 -49 -86 -201 -86 -222
1 -7 16 29 34 78 74 202 198 346 351 408 22 9 33 16 25 16 -8 0 -37 -11 -65
-25z"/>
<path d="M7061 7566 c2 -2 33 -6 69 -9 40 -4 57 -2 45 3 -19 8 -123 14 -114 6z"/>
<path d="M4480 7546 c28 -17 50 -21 35 -7 -6 5 -21 12 -35 15 l-25 7 25 -15z"/>
<path d="M7240 7536 c63 -18 147 -62 201 -105 105 -84 169 -183 213 -333 14
-46 25 -74 25 -62 1 28 -40 147 -72 211 -36 70 -117 165 -174 204 -66 46 -154
87 -199 93 -38 6 -38 6 6 -8z"/>
<path d="M4550 7513 c96 -69 184 -185 226 -296 13 -34 23 -57 23 -50 2 25 -41
123 -78 179 -44 68 -115 141 -163 167 -32 17 -32 17 -8 0z"/>
<path d="M2571 7465 c-5 -33 2 -1550 8 -1595 3 -30 5 310 3 755 -2 704 -4 884
-11 840z"/>
<path d="M3681 7261 c-35 -68 -81 -200 -80 -228 0 -10 10 17 23 60 13 42 39
110 59 150 20 39 34 73 32 75 -2 2 -17 -23 -34 -57z"/>
<path d="M4112 7294 c-73 -36 -135 -113 -156 -194 -3 -14 5 -1 19 29 55 118
119 167 232 180 l68 8 -56 2 c-41 1 -68 -6 -107 -25z"/>
<path d="M5620 7311 c-50 -16 -88 -41 -119 -80 -37 -46 -77 -132 -85 -181 -4
-23 1 -16 13 20 53 162 118 224 250 240 62 7 63 7 16 8 -27 0 -61 -3 -75 -7z"/>
<path d="M4316 7291 c23 -10 59 -36 80 -57 26 -26 34 -30 23 -14 -19 30 -104
90 -128 90 -9 0 2 -9 25 -19z"/>
<path d="M5796 7286 c28 -13 65 -41 83 -62 18 -22 28 -30 23 -19 -21 42 -108
105 -144 105 -7 0 10 -11 38 -24z"/>
<path d="M6895 7257 c-3 -6 -4 -199 -2 -427 l2 -415 3 423 2 422 118 0 c107 0
123 -2 170 -26 63 -31 103 -78 136 -158 14 -34 25 -55 26 -47 0 7 -14 42 -30
77 -33 68 -95 130 -153 151 -45 16 -266 17 -272 0z"/>
<path d="M2904 7030 c0 -102 2 -143 3 -92 2 50 2 134 0 185 -1 50 -3 9 -3 -93z"/>
<path d="M4451 7147 c24 -56 45 -153 54 -255 4 -40 9 -71 12 -68 3 3 0 51 -7
107 -12 109 -40 212 -65 244 -9 13 -8 3 6 -28z"/>
<path d="M4801 7134 c0 -11 3 -14 6 -6 3 7 2 16 -1 19 -3 4 -6 -2 -5 -13z"/>
<path d="M5936 7125 c3 -11 13 -40 20 -65 l14 -45 -6 40 c-3 22 -12 51 -21 65
-9 15 -12 17 -7 5z"/>
<path d="M4810 7102 c0 -6 5 -34 11 -63 6 -28 15 -92 19 -143 l7 -91 1 70 c1
67 -20 221 -32 233 -3 3 -6 0 -6 -6z"/>
<path d="M3935 7030 c-4 -23 -5 -43 -2 -46 2 -3 7 14 11 37 4 23 5 44 2 46 -2
2 -7 -14 -11 -37z"/>
<path d="M6291 7064 c-1 -6 4 -37 10 -70 6 -32 15 -160 19 -284 l7 -225 1 166
c2 165 -12 363 -28 403 -5 12 -9 16 -9 10z"/>
<path d="M5071 7000 c-6 -28 -13 -97 -15 -153 l-5 -102 9 95 c5 52 14 119 20
148 7 30 10 56 7 58 -3 3 -10 -18 -16 -46z"/>
<path d="M3586 6978 c-4 -18 -8 -69 -11 -113 -4 -75 -3 -73 10 30 14 107 14
148 1 83z"/>
<path d="M5395 6947 c-4 -36 -5 -71 -3 -79 3 -7 8 20 12 61 3 41 4 76 2 78 -2
3 -7 -25 -11 -60z"/>
<path d="M5977 6940 c3 -41 7 -77 9 -79 7 -8 2 94 -6 124 -5 18 -6 -1 -3 -45z"/>
<path d="M7351 6999 c-1 -24 21 -133 29 -142 4 -4 1 25 -7 65 -14 80 -21 102
-22 77z"/>
<path d="M7688 6945 c11 -111 7 -433 -7 -515 -13 -85 -51 -210 -81 -272 -11
-23 -18 -43 -15 -46 15 -15 86 198 107 318 16 95 17 489 1 545 -11 36 -11 32
-5 -30z"/>
<path d="M3922 6945 c0 -16 2 -22 5 -12 2 9 2 23 0 30 -3 6 -5 -1 -5 -18z"/>
<path d="M3913 6855 c0 -33 2 -45 4 -27 2 18 2 45 0 60 -2 15 -4 0 -4 -33z"/>
<path d="M5992 6725 c-1 -71 -4 -168 -7 -215 l-4 -85 10 85 c5 47 8 144 6 215
l-3 130 -2 -130z"/>
<path d="M2918 6828 c4 -4 105 -9 224 -10 119 -2 214 0 210 4 -4 4 -105 9
-224 10 -119 2 -214 0 -210 -4z"/>
<path d="M5382 6710 c-4 -252 45 -488 117 -572 45 -53 108 -98 135 -97 14 1
10 4 -13 10 -43 13 -127 97 -151 152 -47 105 -69 238 -79 467 l-8 165 -1 -125z"/>
<path d="M7381 6740 c-1 -52 -5 -125 -10 -162 -4 -38 -4 -68 0 -68 10 0 22
190 17 265 -3 48 -5 41 -7 -35z"/>
<path d="M3362 6685 c-4 -184 22 -165 -221 -165 -131 0 -211 -4 -221 -11 -12
-9 -12 -10 3 -5 10 3 110 6 222 6 194 0 205 1 215 20 6 12 9 70 7 147 l-3 128
-2 -120z"/>
<path d="M4853 6745 c0 -33 2 -45 4 -27 2 18 2 45 0 60 -2 15 -4 0 -4 -33z"/>
<path d="M4524 6670 c0 -69 1 -97 3 -62 2 34 2 90 0 125 -2 34 -3 6 -3 -63z"/>
<path d="M3561 6709 c-1 -81 25 -314 44 -389 8 -30 12 -41 10 -25 -22 150 -38
287 -44 375 -7 89 -8 95 -10 39z"/>
<path d="M5047 6619 c3 -123 13 -127 13 -6 0 54 -3 97 -7 97 -5 0 -7 -41 -6
-91z"/>
<path d="M3903 6595 c0 -44 2 -61 4 -37 2 23 2 59 0 80 -2 20 -4 1 -4 -43z"/>
<path d="M4848 6555 c-4 -66 -17 -160 -28 -209 -11 -49 -18 -91 -16 -93 5 -6
32 113 46 203 6 38 10 104 8 145 -3 68 -4 65 -10 -46z"/>
<path d="M4506 6468 c-8 -92 -39 -215 -66 -269 -12 -23 -43 -63 -69 -89 -38
-38 -59 -50 -100 -59 -69 -15 -89 -14 -144 5 -86 29 -154 135 -187 294 -10 47
-19 74 -19 60 -1 -39 26 -142 53 -203 79 -180 261 -232 394 -112 60 54 97 121
122 222 19 78 38 223 28 223 -3 0 -8 -32 -12 -72z"/>
<path d="M3913 6475 c0 -22 2 -30 4 -17 2 12 2 30 0 40 -3 9 -5 -1 -4 -23z"/>
<path d="M5061 6484 c-3 -99 63 -342 122 -444 48 -84 161 -193 238 -230 35
-16 71 -30 79 -30 8 0 -11 11 -42 24 -116 48 -225 154 -287 280 -38 78 -77
214 -95 336 -8 52 -14 81 -15 64z"/>
<path d="M7352 6427 c-19 -111 -78 -226 -143 -277 -59 -46 -84 -52 -204 -48
l-90 3 -5 155 -6 155 -2 -150 c-1 -107 2 -155 10 -163 20 -20 205 -15 253 7
51 23 115 95 149 167 30 62 59 175 54 208 -2 11 -9 -14 -16 -57z"/>
<path d="M2904 6265 c0 -126 2 -177 3 -112 2 65 2 168 0 230 -1 62 -3 9 -3
-118z"/>
<path d="M6306 6398 c-15 -114 -70 -270 -130 -372 -68 -113 -179 -203 -301
-241 -22 -7 -32 -13 -23 -14 26 -1 96 28 155 65 132 83 224 227 282 436 21 77
37 178 29 178 -3 0 -9 -24 -12 -52z"/>
<path d="M5961 6349 c-16 -89 -44 -167 -74 -206 -17 -22 -18 -25 -3 -13 39 31
104 223 94 276 -1 10 -9 -16 -17 -57z"/>
<path d="M4770 6178 c-77 -212 -230 -362 -407 -398 -34 -7 -113 -11 -196 -8
-77 2 -129 0 -116 -3 48 -14 273 -9 334 6 175 46 312 183 391 391 14 37 23 68
21 71 -2 2 -14 -24 -27 -59z"/>
<path d="M3634 6205 c4 -16 27 -72 53 -124 58 -117 166 -233 255 -274 31 -15
63 -27 70 -27 7 0 -16 14 -50 30 -129 61 -230 177 -299 341 -19 46 -32 71 -29
54z"/>
<path d="M6585 5975 l0 -190 253 -3 c139 -1 266 1 283 5 16 5 -97 7 -251 5
l-280 -4 -3 189 -3 188 1 -190z"/>
<path d="M5831 6085 c-19 -13 -57 -29 -85 -34 -88 -18 -93 -20 -31 -15 56 4
134 38 150 64 10 15 2 12 -34 -15z"/>
<path d="M7548 6063 c-69 -103 -198 -199 -322 -239 -39 -13 -63 -23 -54 -24
33 0 149 48 213 90 66 43 144 122 178 179 25 43 15 39 -15 -6z"/>
<path d="M2891 5908 l-1 -118 -144 0 c-106 0 -146 3 -149 13 -3 7 -6 5 -6 -5
-1 -16 13 -18 153 -18 l155 0 3 98 c2 53 0 108 -4 122 -3 14 -7 -28 -7 -92z"/>
<path d="M5538 5768 c9 -4 80 -6 157 -6 165 1 144 6 -42 10 -73 2 -125 0 -115
-4z"/>
<path d="M792 5202 c-10 -7 -12 -189 -10 -878 l3 -869 290 1 c242 1 297 4 335
17 27 10 33 14 15 11 -97 -19 -175 -24 -393 -24 l-242 0 2 868 3 867 235 5
235 6 -230 2 c-126 1 -236 -2 -243 -6z"/>
<path d="M2147 5203 c-4 -3 -7 -13 -7 -22 0 -12 2 -12 13 2 11 16 45 17 417
15 l405 -3 0 -140 0 -140 -112 -1 c-62 0 -115 -3 -118 -6 -11 -11 218 -8 232
3 18 15 19 269 1 287 -9 9 -116 12 -418 12 -224 0 -410 -3 -413 -7z"/>
<path d="M3241 5160 c-13 -60 -13 -70 -3 -70 4 0 8 15 9 33 6 82 -1 78 139 76
69 -1 128 2 131 5 4 3 -55 6 -130 6 l-135 0 -11 -50z"/>
<path d="M4818 5203 c-10 -2 -18 -9 -18 -14 0 -6 8 -5 20 1 12 7 77 10 161 9
161 -1 157 1 178 -102 7 -32 15 -56 18 -53 12 11 -30 147 -47 156 -18 10 -278
12 -312 3z"/>
<path d="M5686 5195 c-18 -19 -20 -25 -49 -157 -13 -59 -21 -105 -17 -103 4 3
13 33 19 67 17 85 41 171 53 183 5 6 68 13 141 16 l132 5 -132 2 c-106 2 -135
-1 -147 -13z"/>
<path d="M6187 5203 c-4 -3 -7 -18 -6 -32 l1 -26 7 25 7 25 392 3 c260 1 400
-1 412 -8 18 -10 20 -22 20 -140 0 -152 16 -139 -160 -143 -94 -2 -90 -3 25
-3 l140 1 3 143 3 142 -26 10 c-29 11 -807 14 -818 3z"/>
<path d="M7290 5191 c-7 -14 -9 -292 -7 -858 l2 -838 3 841 c2 718 4 843 16
853 11 9 87 11 293 8 153 -2 292 -7 308 -10 17 -4 8 0 -20 7 -36 10 -125 14
-317 15 -255 1 -268 0 -278 -18z"/>
<path d="M8376 5202 c-4 -8 18 -76 92 -282 94 -263 140 -388 219 -600 l87
-235 6 -315 5 -315 154 -3 c104 -2 158 1 167 9 11 9 14 70 14 321 l0 310 84
231 c47 128 110 302 141 387 31 85 69 191 85 235 15 44 42 117 58 161 23 61
28 84 19 93 -18 18 -292 15 -310 -4 -15 -15 -83 -213 -75 -220 2 -2 19 42 37
98 18 56 38 108 43 115 8 8 51 12 154 12 127 0 144 -2 144 -16 0 -9 -59 -179
-131 -378 -72 -198 -145 -399 -162 -446 -17 -47 -45 -125 -64 -174 l-33 -88 0
-313 c0 -276 -2 -314 -16 -319 -9 -3 -80 -6 -160 -6 l-143 0 -3 313 -3 312
-98 265 c-54 146 -118 319 -142 385 -23 66 -68 190 -99 277 -31 86 -56 164
-56 173 0 14 19 16 160 14 l160 -1 14 -26 c7 -15 27 -70 44 -122 115 -359 175
-536 184 -545 7 -7 9 -5 5 5 -3 8 -56 166 -117 352 -71 217 -116 338 -126 342
-24 9 -332 7 -338 -2z"/>
<path d="M1350 5185 c219 -34 366 -134 454 -307 20 -40 34 -62 30 -48 -14 56
-86 160 -151 219 -95 86 -266 153 -383 150 -19 -1 3 -7 50 -14z"/>
<path d="M3578 5163 c6 -65 10 -70 11 -15 0 28 -3 52 -7 52 -4 0 -6 -17 -4
-37z"/>
<path d="M5976 5154 c-3 -26 -4 -49 -2 -52 3 -2 8 17 11 43 4 25 5 48 3 51 -3
2 -8 -17 -12 -42z"/>
<path d="M4465 5170 c11 -5 36 -9 56 -9 80 -2 120 -67 120 -198 0 -141 -45
-187 -176 -181 -90 5 -124 22 -153 78 -20 39 -23 56 -20 126 6 110 35 153 121
175 l32 9 -37 -4 c-81 -9 -119 -61 -126 -172 -10 -160 61 -233 218 -222 110 8
151 60 151 193 1 142 -39 196 -151 208 -34 3 -47 2 -35 -3z"/>
<path d="M7960 5169 c14 -7 49 -22 78 -35 102 -45 208 -174 227 -277 4 -20 11
-37 15 -37 10 0 -11 72 -41 134 -43 92 -175 196 -279 220 l-25 6 25 -11z"/>
<path d="M4812 5150 c0 -14 2 -19 5 -12 2 6 2 18 0 25 -3 6 -5 1 -5 -13z"/>
<path d="M2131 5144 c0 -11 3 -14 6 -6 3 7 2 16 -1 19 -3 4 -6 -2 -5 -13z"/>
<path d="M4820 5112 c0 -7 13 -67 29 -135 16 -67 35 -149 42 -181 7 -33 14
-55 16 -49 4 10 -76 364 -83 372 -2 2 -4 -1 -4 -7z"/>
<path d="M2133 5065 c0 -14 3 -25 8 -25 4 0 6 10 4 21 -6 32 -12 34 -12 4z"/>
<path d="M5941 4994 c-12 -53 -21 -98 -18 -100 2 -2 14 39 27 91 12 53 20 98
18 100 -2 3 -14 -39 -27 -91z"/>
<path d="M6181 5064 c0 -11 3 -14 6 -6 3 7 2 16 -1 19 -3 4 -6 -2 -5 -13z"/>
<path d="M3242 4263 l-2 -813 399 0 c350 0 402 2 415 16 13 12 16 41 16 155
l0 139 -187 -2 -188 -3 183 -2 182 -3 0 -133 c0 -90 -4 -137 -12 -145 -9 -9
-113 -12 -405 -12 l-393 0 -3 808 -2 807 -3 -812z"/>
<path d="M3572 4428 c-2 -631 -2 -648 17 -658 11 -5 39 -9 63 -8 39 1 40 2 8
5 -19 2 -45 6 -57 8 l-23 5 -3 648 -2 647 -3 -647z"/>
<path d="M2131 5023 c0 -4 4 -17 9 -28 8 -19 9 -19 9 2 1 12 -3 25 -9 28 -5 3
-10 3 -9 -2z"/>
<path d="M5186 4990 c3 -25 10 -61 14 -80 8 -28 8 -25 4 18 -3 29 -10 65 -15
80 -6 20 -7 16 -3 -18z"/>
<path d="M2137 4963 c-3 -5 -1 -17 4 -28 6 -17 7 -16 6 8 -1 28 -3 32 -10 20z"/>
<path d="M9046 4739 c-37 -122 -65 -223 -63 -225 2 -3 11 19 20 48 92 303 118
391 114 394 -2 2 -34 -95 -71 -217z"/>
<path d="M6182 4905 c0 -16 2 -22 5 -12 2 9 2 23 0 30 -3 6 -5 -1 -5 -18z"/>
<path d="M1170 4910 c-34 -7 -34 -7 -5 -8 17 0 53 3 80 8 l50 7 -45 0 c-25 0
-61 -3 -80 -7z"/>
<path d="M2518 4913 c7 -3 16 -2 19 1 4 3 -2 6 -13 5 -11 0 -14 -3 -6 -6z"/>
<path d="M2568 4913 c12 -2 32 -2 45 0 12 2 2 4 -23 4 -25 0 -35 -2 -22 -4z"/>
<path d="M2644 4908 c-3 -5 10 -8 30 -6 20 1 36 5 36 8 0 10 -60 8 -66 -2z"/>
<path d="M5611 4917 c-1 -5 -14 -70 -31 -145 -55 -256 -162 -804 -157 -809 3
-2 10 19 16 49 34 174 145 727 162 803 10 49 17 94 15 100 -2 5 -5 6 -5 2z"/>
<path d="M6528 4913 c-26 -7 -29 -30 -26 -228 l3 -180 3 191 c2 186 3 192 25
207 23 17 23 17 -5 10z"/>
<path d="M7622 4908 c-9 -9 -12 -87 -12 -289 0 -247 2 -278 16 -283 14 -5 15
-4 5 7 -8 10 -11 92 -9 288 l3 274 100 6 100 5 -95 2 c-64 1 -100 -2 -108 -10z"/>
<path d="M1341 4896 c86 -31 133 -77 178 -176 12 -25 18 -34 15 -20 -10 38
-40 94 -70 129 -28 34 -111 81 -141 81 -10 -1 -2 -7 18 -14z"/>
<path d="M2470 4899 c0 -5 5 -7 10 -4 6 3 10 8 10 11 0 2 -4 4 -10 4 -5 0 -10
-5 -10 -11z"/>
<path d="M6668 4903 c12 -2 30 -2 40 0 9 3 -1 5 -23 4 -22 0 -30 -2 -17 -4z"/>
<path d="M7859 4889 c50 -30 68 -56 91 -128 49 -156 2 -342 -103 -401 -23 -13
-68 -25 -120 -30 l-82 -9 83 4 c135 5 203 60 237 190 38 150 -2 323 -89 376
-17 10 -35 19 -41 19 -5 0 5 -9 24 -21z"/>
<path d="M1105 4415 c0 -258 1 -366 2 -238 2 127 2 339 0 470 -1 131 -2 27 -2
-232z"/>
<path d="M2464 4715 c0 -93 2 -133 3 -88 2 45 2 122 0 170 -1 48 -3 12 -3 -82z"/>
<path d="M5861 4649 c-29 -126 -51 -232 -49 -234 2 -2 29 101 59 230 31 129
53 235 50 235 -3 0 -30 -104 -60 -231z"/>
<path d="M5216 4825 c3 -27 8 -52 10 -54 10 -11 9 8 -3 54 l-13 50 6 -50z"/>
<path d="M8287 4710 c3 -58 7 -107 9 -109 7 -7 2 101 -6 159 -6 39 -7 24 -3
-50z"/>
<path d="M1841 4795 c0 -5 8 -39 19 -75 10 -36 19 -56 19 -45 0 21 -36 137
-38 120z"/>
<path d="M2141 4764 c0 -11 3 -14 6 -6 3 7 2 16 -1 19 -3 4 -6 -2 -5 -13z"/>
<path d="M5232 4740 c0 -14 2 -19 5 -12 2 6 2 18 0 25 -3 6 -5 1 -5 -13z"/>
<path d="M2141 4714 c0 -11 3 -14 6 -6 3 7 2 16 -1 19 -3 4 -6 -2 -5 -13z"/>
<path d="M4925 4638 c26 -105 47 -176 41 -138 -9 58 -51 230 -57 230 -3 0 4
-42 16 -92z"/>
<path d="M5246 4670 c3 -25 9 -49 14 -54 9 -9 6 4 -14 79 -3 11 -3 0 0 -25z"/>
<path d="M2142 4665 c0 -16 2 -22 5 -12 2 9 2 23 0 30 -3 6 -5 -1 -5 -18z"/>
<path d="M1547 4640 c4 -19 10 -53 14 -75 l6 -40 1 35 c0 19 -6 53 -13 75 -14
39 -14 39 -8 5z"/>
<path d="M1887 4575 c3 -44 7 -82 9 -84 7 -8 3 84 -6 124 -6 29 -7 17 -3 -40z"/>
<path d="M2141 4594 c0 -11 3 -14 6 -6 3 7 2 16 -1 19 -3 4 -6 -2 -5 -13z"/>
<path d="M4312 4573 c1 -37 1 -37 5 -5 l4 32 149 0 c126 0 149 -2 154 -16 3
-9 6 -265 6 -570 l0 -555 -157 3 -158 3 -5 535 -5 535 0 -540 0 -540 165 0
165 0 3 564 c1 408 -1 568 -9 577 -9 11 -48 14 -165 14 l-154 0 2 -37z"/>
<path d="M5261 4590 c0 -8 7 -44 14 -80 l15 -65 -6 59 c-5 55 -23 121 -23 86z"/>
<path d="M2139 4528 c-2 -93 -1 -130 5 -135 3 -4 6 33 6 80 0 48 -2 87 -5 87
-3 0 -5 -15 -6 -32z"/>
<path d="M8276 4515 c-12 -77 -53 -193 -86 -241 -17 -23 -55 -65 -85 -91 -30
-26 -55 -51 -55 -56 0 -4 14 5 32 20 66 57 119 119 143 168 28 57 68 206 63
233 -2 9 -8 -5 -12 -33z"/>
<path d="M2470 4524 c0 -13 18 -39 24 -34 2 3 -2 14 -10 24 -8 11 -14 16 -14
10z"/>
<path d="M1574 4355 c-1 -294 -50 -462 -163 -556 -49 -41 -91 -51 -196 -47
l-90 3 -6 90 -5 90 -2 -85 c-1 -56 2 -90 10 -98 20 -20 195 -15 243 7 52 24
120 99 152 167 50 111 81 355 65 519 -7 68 -8 55 -8 -90z"/>
<path d="M6170 4484 c0 -8 5 -12 10 -9 6 4 8 11 5 16 -9 14 -15 11 -15 -7z"/>
<path d="M6517 4488 c2 -5 91 -8 197 -8 209 0 211 0 219 -55 4 -28 4 -28 6 6
0 20 -5 41 -12 47 -15 13 -418 22 -410 10z"/>
<path d="M2695 4480 l189 -5 7 -25 c4 -14 7 -75 8 -136 1 -93 -2 -113 -15
-118 -9 -3 -103 -6 -209 -6 -107 0 -196 -3 -198 -7 -8 -13 405 -4 421 9 19 16
14 257 -7 281 -12 15 -37 17 -200 15 l-186 -2 190 -6z"/>
<path d="M1904 4355 c0 -71 1 -99 3 -62 2 37 2 96 0 130 -2 34 -3 4 -3 -68z"/>
<path d="M4972 4460 c-1 -8 12 -67 27 -130 16 -63 29 -108 30 -100 0 8 -12 67
-28 130 -16 63 -29 108 -29 100z"/>
<path d="M5290 4420 c0 -11 4 -20 9 -20 5 0 7 9 4 20 -3 11 -7 20 -9 20 -2 0
-4 -9 -4 -20z"/>
<path d="M6170 4359 c0 -29 2 -50 5 -47 10 9 13 88 4 94 -5 3 -9 -18 -9 -47z"/>
<path d="M5776 4279 c-16 -66 -26 -122 -24 -124 2 -2 17 50 32 116 15 66 26
122 24 125 -2 2 -17 -50 -32 -117z"/>
<path d="M5302 4370 c0 -14 4 -38 8 -55 l8 -30 0 35 c0 19 -3 44 -8 55 -8 18
-9 18 -8 -5z"/>
<path d="M6932 4370 c0 -14 2 -19 5 -12 2 6 2 18 0 25 -3 6 -5 1 -5 -13z"/>
<path d="M2142 4360 c0 -14 2 -19 5 -12 2 6 2 18 0 25 -3 6 -5 1 -5 -13z"/>
<path d="M2144 4235 c0 -49 1 -71 3 -48 2 23 2 64 0 90 -2 26 -3 8 -3 -42z"/>
<path d="M5322 4260 c0 -14 2 -19 5 -12 2 6 2 18 0 25 -3 6 -5 1 -5 -13z"/>
<path d="M6932 4233 l-2 -43 -207 -3 -208 -2 208 -3 c228 -2 222 -4 214 60 -3
30 -4 29 -5 -9z"/>
<path d="M5331 4214 c0 -11 3 -14 6 -6 3 7 2 16 -1 19 -3 4 -6 -2 -5 -13z"/>
<path d="M1892 4172 c-6 -92 -36 -225 -74 -322 -55 -140 -165 -263 -293 -326
-38 -19 -59 -32 -45 -28 48 12 149 75 196 122 89 88 153 205 190 344 20 79 43
237 34 243 -3 2 -7 -13 -8 -33z"/>
<path d="M5034 4188 c3 -13 15 -65 27 -116 12 -51 24 -91 26 -88 6 5 -47 226
-54 226 -3 0 -3 -10 1 -22z"/>
<path d="M5342 4138 c4 -29 15 -86 24 -125 14 -64 18 -73 37 -72 17 1 18 2 5
6 -10 2 -20 14 -23 26 -18 76 -35 172 -35 193 0 13 -4 24 -9 24 -4 0 -4 -23 1
-52z"/>
<path d="M6503 4115 c0 -33 3 -94 7 -135 l7 -75 0 60 c0 33 -3 94 -7 135 l-7
75 0 -60z"/>
<path d="M2464 3970 c0 -145 2 -172 7 -107 3 49 3 137 -1 195 -5 90 -6 75 -6
-88z"/>
<path d="M6173 4120 c0 -25 2 -35 4 -22 2 12 2 32 0 45 -2 12 -4 2 -4 -23z"/>
<path d="M5711 3999 c-18 -77 -31 -142 -29 -144 2 -3 19 59 37 136 18 77 31
142 29 145 -3 2 -19 -59 -37 -137z"/>
<path d="M8051 4100 c0 -14 28 -72 29 -59 0 4 -7 22 -15 40 -8 19 -14 27 -14
19z"/>
<path d="M2141 4064 c0 -11 3 -14 6 -6 3 7 2 16 -1 19 -3 4 -6 -2 -5 -13z"/>
<path d="M7648 4073 c6 -2 18 -2 25 0 6 3 1 5 -13 5 -14 0 -19 -2 -12 -5z"/>
<path d="M7757 4030 c9 -22 18 -38 20 -36 5 5 -24 76 -31 76 -2 0 3 -18 11
-40z"/>
<path d="M7610 3754 l0 -297 -151 5 c-111 4 -154 9 -161 19 -8 11 -9 11 -5 -1
5 -19 69 -28 215 -29 l112 -1 0 300 c0 165 -2 300 -5 300 -3 0 -5 -133 -5
-296z"/>
<path d="M8080 4029 c0 -3 20 -57 44 -120 24 -63 71 -186 105 -275 33 -88 61
-163 61 -167 0 -4 -69 -7 -154 -7 l-154 0 -30 78 c-16 42 -60 159 -97 260 -37
100 -70 180 -72 178 -2 -2 9 -39 26 -82 16 -44 48 -131 72 -194 64 -173 83
-224 92 -237 10 -16 312 -19 322 -3 4 6 -39 131 -95 278 -94 246 -119 307
-120 291z"/>
<path d="M2140 3973 c-1 -21 -2 -64 -4 -95 -1 -32 1 -58 6 -58 4 0 8 43 8 95
0 52 -2 95 -5 95 -3 0 -5 -17 -5 -37z"/>
<path d="M6172 3959 c-2 -21 -1 -39 2 -39 7 0 13 71 6 75 -3 2 -7 -14 -8 -36z"/>
<path d="M5091 3964 c-2 -18 32 -160 35 -149 2 6 -5 44 -15 85 -10 41 -19 70
-20 64z"/>
<path d="M6171 3854 c0 -11 3 -14 6 -6 3 7 2 16 -1 19 -3 4 -6 -2 -5 -13z"/>
<path d="M5666 3804 c-4 -20 -5 -38 -3 -40 3 -3 8 11 11 32 4 20 5 38 3 40 -3
3 -8 -11 -11 -32z"/>
<path d="M6512 3808 c-2 -28 3 -40 17 -48 12 -6 113 -10 260 -10 182 0 241 -3
244 -12 3 -8 6 -6 6 5 1 16 -17 17 -246 17 -137 0 -253 4 -260 8 -6 4 -13 23
-16 42 l-4 35 -1 -37z"/>
<path d="M2134 3685 c0 -68 3 -122 7 -120 9 6 9 234 1 239 -4 2 -8 -51 -8
-119z"/>
<path d="M5132 3790 c0 -8 4 -26 8 -40 6 -20 8 -21 8 -5 0 11 -3 29 -8 40 -5
12 -8 14 -8 5z"/>
<path d="M2740 3753 c188 -3 256 -7 262 -16 13 -20 10 -251 -4 -265 -9 -9
-118 -12 -429 -12 l-417 0 -6 26 c-4 14 -4 34 -1 45 4 11 2 19 -4 19 -14 0
-14 -40 -1 -74 l10 -26 423 0 c316 0 426 3 435 12 13 13 18 252 6 282 -5 14
-37 16 -268 14 l-261 -3 255 -2z"/>
<path d="M5651 3734 c0 -11 3 -14 6 -6 3 7 2 16 -1 19 -3 4 -6 -2 -5 -13z"/>
<path d="M6174 3630 c0 -58 1 -81 3 -52 2 28 2 76 0 105 -2 28 -3 5 -3 -53z"/>
<path d="M5151 3704 c0 -11 3 -14 6 -6 3 7 2 16 -1 19 -3 4 -6 -2 -5 -13z"/>
<path d="M5619 3598 c-14 -70 -30 -119 -41 -130 -17 -17 -35 -18 -175 -17
-127 2 -159 5 -172 18 -9 9 -27 60 -40 114 -13 54 -25 96 -28 93 -5 -5 35
-170 49 -202 14 -31 32 -34 205 -34 169 0 175 2 192 68 27 108 43 193 39 198
-3 2 -16 -46 -29 -108z"/>
<path d="M7030 3555 l-5 -90 -417 -3 -418 -2 0 24 c0 14 -5 28 -10 31 -6 4 -8
-3 -6 -17 3 -13 5 -29 5 -35 1 -20 849 -19 857 0 3 8 3 52 2 98 l-4 84 -4 -90z"/>
</g>
</svg>
